<svg id="aadbddf9-a76a-4c34-9992-e18b2a04f763" data-name="Layer 1" xmlns="http://www.w3.org/2000/svg" viewBox="0 0 305.76 130.72">
  <defs>
    <style>
      .a54ef89c-9fb5-4dd7-83b8-da2388097572 {
        fill: #252f53;
      }

      .b59aeab2-f1ef-451d-8608-83c6814b272e {
        opacity: 0.53;
      }

      .e8feab51-07cf-400e-a25d-7fd4e50b8307 {
        fill: #7f8080;
      }

      .adf7adde-56b7-4562-b0fa-f6bc3d9ea92e {
        fill: #f47421;
      }
    </style>
  </defs>
  <g>
    <g>
      <path class="a54ef89c-9fb5-4dd7-83b8-da2388097572" d="M454.2,656.3a4,4,0,0,1-4,2.64,4.42,4.42,0,0,1-3.48-1.44,6.6,6.6,0,0,1-1.26-4.19c0-2.3.83-5.78,4.65-5.78a4.08,4.08,0,0,1,4.19,2.82l-1,.53a3.32,3.32,0,0,0-1.15-1.89,3.22,3.22,0,0,0-2-.55,3,3,0,0,0-2.67,1.28,5.65,5.65,0,0,0-.94,3.44,6.56,6.56,0,0,0,.9,3.59,3.38,3.38,0,0,0,2.88,1.27,2.86,2.86,0,0,0,1.71-.46,3.37,3.37,0,0,0,1.24-1.85Z" transform="translate(-441.74 -528.23)"/>
      <path class="a54ef89c-9fb5-4dd7-83b8-da2388097572" d="M460.28,658.67h-1V647.81h1Z" transform="translate(-441.74 -528.23)"/>
      <path class="a54ef89c-9fb5-4dd7-83b8-da2388097572" d="M473.66,658.67h-7.47V647.81h7.09v1h-6.06v3.86h5.49v1h-5.49v4.13h6.44Z" transform="translate(-441.74 -528.23)"/>
      <path class="a54ef89c-9fb5-4dd7-83b8-da2388097572" d="M487.29,658.67h-1l-6.38-9.38v9.38h-1V647.81h1l6.47,9.29-.09-9.29h1Z" transform="translate(-441.74 -528.23)"/>
      <path class="a54ef89c-9fb5-4dd7-83b8-da2388097572" d="M501.16,656.3a4,4,0,0,1-4,2.64,4.42,4.42,0,0,1-3.48-1.44,6.54,6.54,0,0,1-1.26-4.19c0-2.3.83-5.78,4.64-5.78a4.08,4.08,0,0,1,4.2,2.82l-1,.53a3.37,3.37,0,0,0-1.15-1.89,3.24,3.24,0,0,0-2-.55,3,3,0,0,0-2.68,1.28,5.72,5.72,0,0,0-.94,3.44,6.58,6.58,0,0,0,.91,3.59,3.38,3.38,0,0,0,2.88,1.27,2.86,2.86,0,0,0,1.71-.46,3.37,3.37,0,0,0,1.24-1.85Z" transform="translate(-441.74 -528.23)"/>
      <path class="a54ef89c-9fb5-4dd7-83b8-da2388097572" d="M507.24,658.67h-1V647.81h1Z" transform="translate(-441.74 -528.23)"/>
      <path class="a54ef89c-9fb5-4dd7-83b8-da2388097572" d="M521,658.67H519.9l-1.25-3.28h-4.86l-1.23,3.28h-1.15l4.43-10.86h.86Zm-2.68-4.11L516.25,649l-2.12,5.54Z" transform="translate(-441.74 -528.23)"/>
      <path class="a54ef89c-9fb5-4dd7-83b8-da2388097572" d="M540.43,656.3a4,4,0,0,1-4,2.64,4.42,4.42,0,0,1-3.48-1.44,6.54,6.54,0,0,1-1.26-4.19c0-2.3.83-5.78,4.64-5.78a4.08,4.08,0,0,1,4.2,2.82l-1,.53a3.37,3.37,0,0,0-1.15-1.89,3.24,3.24,0,0,0-2-.55,3,3,0,0,0-2.68,1.28,5.71,5.71,0,0,0-.93,3.44,6.56,6.56,0,0,0,.9,3.59,3.38,3.38,0,0,0,2.88,1.27,2.86,2.86,0,0,0,1.71-.46,3.37,3.37,0,0,0,1.24-1.85Z" transform="translate(-441.74 -528.23)"/>
      <path class="a54ef89c-9fb5-4dd7-83b8-da2388097572" d="M553,657.53a4,4,0,0,1-3.26,1.41,4.08,4.08,0,0,1-3.34-1.47,6.47,6.47,0,0,1-1.36-4.25c0-3,1.47-5.69,4.7-5.69,3.6,0,4.66,3.17,4.65,5.63A7.11,7.11,0,0,1,553,657.53Zm-3.26-9.11c-2.77,0-3.61,2.74-3.61,4.82s.8,4.78,3.57,4.78c3.35,0,3.58-4,3.58-4.84C553.26,651.21,552.46,648.42,549.71,648.42Z" transform="translate(-441.74 -528.23)"/>
      <path class="a54ef89c-9fb5-4dd7-83b8-da2388097572" d="M567.86,658.67h-1l-6.38-9.38v9.38h-1V647.81h1l6.47,9.29-.09-9.29h1Z" transform="translate(-441.74 -528.23)"/>
      <path class="a54ef89c-9fb5-4dd7-83b8-da2388097572" d="M576.54,658.67h-1v-9.95H572.1v-.91H580v.91h-3.43Z" transform="translate(-441.74 -528.23)"/>
      <path class="a54ef89c-9fb5-4dd7-83b8-da2388097572" d="M591.15,658.67H590l-1.25-3.28h-4.86l-1.23,3.28h-1.15L586,647.81h.86Zm-2.67-4.11-2.1-5.54-2.12,5.54Z" transform="translate(-441.74 -528.23)"/>
      <path class="a54ef89c-9fb5-4dd7-83b8-da2388097572" d="M595.33,658.67V647.81h2.89a8.59,8.59,0,0,1,2.94.32c1.55.62,2.72,2.54,2.72,5.08a5.83,5.83,0,0,1-1.93,4.67c-1,.77-2,.79-3.8.79Zm1-.93H598a7.8,7.8,0,0,0,2.86-.32c1-.48,2-2,2-4.17,0-1.86-.73-3.64-2.06-4.23a6.18,6.18,0,0,0-2.52-.26h-1.89Z" transform="translate(-441.74 -528.23)"/>
      <path class="a54ef89c-9fb5-4dd7-83b8-da2388097572" d="M616.89,658.67h-1.12l-1.25-3.28h-4.86l-1.23,3.28h-1.15l4.43-10.86h.86Zm-2.67-4.11-2.1-5.54L610,654.56Z" transform="translate(-441.74 -528.23)"/>
      <path class="a54ef89c-9fb5-4dd7-83b8-da2388097572" d="M635.48,658.67H628V647.81h7.09v1H629v3.86h5.49v1H629v4.13h6.44Z" transform="translate(-441.74 -528.23)"/>
      <path class="a54ef89c-9fb5-4dd7-83b8-da2388097572" d="M649.1,658.67h-1l-6.38-9.38v9.38h-1V647.81h1l6.47,9.29-.09-9.29h1Z" transform="translate(-441.74 -528.23)"/>
      <path class="a54ef89c-9fb5-4dd7-83b8-da2388097572" d="M668.77,658.67H661.3V647.81h7.09v1h-6.06v3.86h5.49v1h-5.49v4.13h6.44Z" transform="translate(-441.74 -528.23)"/>
      <path class="a54ef89c-9fb5-4dd7-83b8-da2388097572" d="M679.78,650.44a3.25,3.25,0,0,0-.46-1,2.81,2.81,0,0,0-2.36-1.09c-1.16,0-2.55.49-2.55,1.94s1.22,1.7,1.83,1.89c.31.09,1.86.49,2.2.61.59.19,2.51.82,2.51,2.88,0,1.52-1.28,3.24-4.06,3.24a4.62,4.62,0,0,1-2.56-.66,3.39,3.39,0,0,1-1.47-2.35l1-.54a2.57,2.57,0,0,0,3,2.66c2.09,0,3-1.15,3-2.3a1.79,1.79,0,0,0-.66-1.47,6.35,6.35,0,0,0-2.55-.93c-1.54-.4-3.28-1-3.28-3s1.89-2.83,3.59-2.83a3.58,3.58,0,0,1,3.73,2.39Z" transform="translate(-441.74 -528.23)"/>
      <path class="a54ef89c-9fb5-4dd7-83b8-da2388097572" d="M686.7,658.67h-1V647.81h3.7a7.61,7.61,0,0,1,3,.29,2.81,2.81,0,0,1,1.46,2.68,2.73,2.73,0,0,1-2.08,2.84,11.38,11.38,0,0,1-2.72.16H686.7Zm0-5.8h2.81a11.15,11.15,0,0,0,1.8-.08,1.87,1.87,0,0,0,1.6-2,2.07,2.07,0,0,0-.78-1.74c-.51-.33-.86-.33-2.8-.35H686.7Z" transform="translate(-441.74 -528.23)"/>
      <path class="a54ef89c-9fb5-4dd7-83b8-da2388097572" d="M705.37,658.67h-1.13L703,655.39h-4.86l-1.23,3.28h-1.16l4.43-10.86H701Zm-2.68-4.11L700.6,649l-2.12,5.54Z" transform="translate(-441.74 -528.23)"/>
      <path class="a54ef89c-9fb5-4dd7-83b8-da2388097572" d="M717.94,658.67h-1l-6.38-9.38v9.38h-1V647.81h1L717,657.1l-.09-9.29h1Zm-1.58-13.35v.07c-.28.57-.66,1.37-1.46,1.37a3.11,3.11,0,0,1-1.28-.44,3.2,3.2,0,0,0-1-.4c-.43,0-.68.44-.82.84l-.61-.2c.24-.72.71-1.58,1.54-1.58a2.2,2.2,0,0,1,1,.34c.84.46.93.52,1.13.52.42,0,.63-.37.85-.8Z" transform="translate(-441.74 -528.23)"/>
      <path class="a54ef89c-9fb5-4dd7-83b8-da2388097572" d="M730.69,657.53a4,4,0,0,1-3.26,1.41,4.08,4.08,0,0,1-3.34-1.47,6.42,6.42,0,0,1-1.37-4.25c0-3,1.48-5.69,4.71-5.69,3.6,0,4.66,3.17,4.65,5.63A7.11,7.11,0,0,1,730.69,657.53Zm-3.26-9.11c-2.77,0-3.61,2.74-3.61,4.82s.8,4.78,3.56,4.78c3.36,0,3.59-4,3.59-4.84C731,651.21,730.18,648.42,727.43,648.42Z" transform="translate(-441.74 -528.23)"/>
      <path class="a54ef89c-9fb5-4dd7-83b8-da2388097572" d="M744.22,658.67h-7V647.79h1v9.92h6Z" transform="translate(-441.74 -528.23)"/>
    </g>
    <path class="a54ef89c-9fb5-4dd7-83b8-da2388097572" d="M526.84,612.88c-8.26,12.39-25.5,17.24-39.68,17.24-5,0-20.65-.9-34.29-9.34a68.25,68.25,0,0,1-11.13-8.8l17.59-15.8a39.08,39.08,0,0,0,5,4.49c6.1,4.85,14.54,8.44,22.26,8.44a31.62,31.62,0,0,0,6.82-.9c4.13-.9,9.7-3.23,9.7-8.44-.18-6.46-8.44-7.18-18.49-8.79-19.57-3.24-28.55-7.72-33.4-17.06a26.64,26.64,0,0,1-2.87-11.67,29.07,29.07,0,0,1,3.95-14c4.31-7.72,14.9-17.41,35.73-17.41a69.91,69.91,0,0,1,33.93,9c2.69,1.61,5.21,3.23,7.72,5l-17.05,15.8a53.73,53.73,0,0,0-5-3.59c-5-3-12.57-5.74-18.49-5.74a25.28,25.28,0,0,0-8.8,1.61c-3.41,1.62-4.31,4-4.31,5.57a5.83,5.83,0,0,0,2.51,4.49c2.7,1.79,9.52,2.69,12.57,3.41l12.39,2.69c14.9,3.23,27.83,10.77,27.83,28.19A28.15,28.15,0,0,1,526.84,612.88Z" transform="translate(-441.74 -528.23)"/>
    <path class="a54ef89c-9fb5-4dd7-83b8-da2388097572" d="M536.36,627.6V571.15h27.47V627.6Z" transform="translate(-441.74 -528.23)"/>
    <path class="a54ef89c-9fb5-4dd7-83b8-da2388097572" d="M627.74,627.6v-53c0-6.29-.18-11-1.08-13.47-1.25-3.23-4.66-7.54-12.56-7.54-1.26,0-5.93,0-9.34,2.87-4.67,3.59-5.21,9.34-5.21,20.47V627.6H571.9V534.06h28v8.08a33.54,33.54,0,0,1,4.31-4.13c3.41-2.51,10.95-6.46,22.09-6.46,2.15,0,10.05.18,16.69,3.77,11.49,6.1,12.39,16.7,12.39,28.19V627.6Z" transform="translate(-441.74 -528.23)"/>
    <path class="a54ef89c-9fb5-4dd7-83b8-da2388097572" d="M741,614.5a46,46,0,0,1-35.19,16.15,49.58,49.58,0,0,1-21.9-5.2c-17.6-8.62-24.6-25.32-24.6-44a58.22,58.22,0,0,1,4.67-23.7c10.59-24.6,33.75-26.57,42.37-26.57,7.36,0,23.88,1.43,36.45,17.23,1.08,1.44,1.79,2.52,3.59,5.39L726,565.48a31.38,31.38,0,0,0-3.05-5.39c-1.62-2-6.82-7.72-15.26-7.72a16.24,16.24,0,0,0-10.06,3.24c-9.51,7.18-9.87,23.16-9.87,24.95,0,8.08,2.69,18.49,9,23.7a18.38,18.38,0,0,0,11.85,4.49A19.15,19.15,0,0,0,724,600.31a23.07,23.07,0,0,0,2.69-5.56l20.83,10.77A82.3,82.3,0,0,1,741,614.5Z" transform="translate(-441.74 -528.23)"/>
    <g>
      <g class="b59aeab2-f1ef-451d-8608-83c6814b272e">
        <path class="e8feab51-07cf-400e-a25d-7fd4e50b8307" d="M539.86,531.06,569,548.38l-29.18,17.31Z" transform="translate(-441.74 -528.23)"/>
      </g>
      <path class="adf7adde-56b7-4562-b0fa-f6bc3d9ea92e" d="M537,528.23l29.18,17.31L537,562.86Z" transform="translate(-441.74 -528.23)"/>
    </g>
  </g>
</svg>
